<svg width="314" height="143" viewBox="0 0 314 143" fill="currentColor" xmlns="http://www.w3.org/2000/svg">
<path d="M313.325 142.5L276.944 9.56831C275.397 3.91803 270.263 0 264.405 0H243.325C236.145 0 230.325 5.8203 230.325 13V36.5V103.5V129.5C230.325 136.68 236.145 142.5 243.325 142.5H313.325Z" fill="currentColor"/>
<path d="M313.325 54L278.217 5.38862C275.773 2.00456 271.853 0 267.678 0H243.325C236.145 0 230.325 5.8203 230.325 13V13.8316V39.2211V41C230.325 48.1797 236.145 54 243.325 54H313.325Z" fill="currentColor"/>
<path fill-rule="evenodd" clip-rule="evenodd" d="M36.3813 9.56831L0 142.5H70C77.1797 142.5 83 136.68 83 129.5V103.5C99.9907 103.5 116.424 109.561 129.345 120.594L140.133 129.806C149.728 137.999 161.932 142.5 174.549 142.5H187H206C213.18 142.5 219 136.68 219 129.5V49C219 21.9381 197.062 0 170 0H115.978C111.8 0 107.877 2.00739 105.434 5.39543L83 36.5V13C83 5.8203 77.1797 0 70 0H48.9202C43.0621 0 37.9277 3.91803 36.3813 9.56831ZM181.775 79.8884C181.474 78.9716 180.177 78.9716 179.875 79.8884L174.425 96.4618C174.325 96.7635 174.089 97.0001 173.787 97.0994L157.214 102.55C156.297 102.852 156.297 104.148 157.214 104.45L173.787 109.901C174.089 110 174.325 110.236 174.425 110.538L179.875 127.112C180.177 128.028 181.474 128.028 181.775 127.112L187.226 110.538C187.325 110.236 187.562 110 187.863 109.901L204.437 104.45C205.354 104.148 205.354 102.852 204.437 102.55L187.863 97.0994C187.562 97.0001 187.325 96.7635 187.226 96.4618L181.775 79.8884Z" fill="currentColor"/>
</svg>
